<svg xmlns="http://www.w3.org/2000/svg" viewBox="0 0 64 64">
  <rect width="64" height="64" rx="14" fill="#f5f0e8"/>
  <g transform="translate(32, 34)">
    <!-- Stone base -->
    <path d="M-15,13 Q-16,8 -12,5 L12,5 Q16,8 15,13 Z" fill="#2d4a3e" opacity="0.25"/>
    <!-- 1st tier -->
    <rect x="-10" y="-3" width="20" height="8" rx="0.5" fill="#2d4a3e"/>
    <path d="M-14,-3 L0,-6 L14,-3" fill="none" stroke="#2d4a3e" stroke-width="1.2" stroke-linecap="round" stroke-linejoin="round"/>
    <!-- 2nd tier -->
    <rect x="-6.5" y="-10" width="13" height="7" rx="0.5" fill="#2d4a3e"/>
    <path d="M-10,-10 L0,-13 L10,-10" fill="none" stroke="#2d4a3e" stroke-width="1" stroke-linecap="round" stroke-linejoin="round"/>
    <!-- 3rd tier -->
    <rect x="-4" y="-16" width="8" height="6" rx="0.5" fill="#2d4a3e"/>
    <path d="M-6.5,-16 L0,-19 L6.5,-16" fill="none" stroke="#2d4a3e" stroke-width="0.8" stroke-linecap="round" stroke-linejoin="round"/>
    <!-- Finial -->
    <line x1="0" y1="-19" x2="0" y2="-21" stroke="#2d4a3e" stroke-width="0.6" stroke-linecap="round"/>
    <circle cx="0" cy="-21.8" r="0.7" fill="#2d4a3e"/>
    <!-- Windows -->
    <rect x="-6" y="-1" width="2" height="3" rx="0.3" fill="#f5f0e8" opacity="0.85"/>
    <rect x="-1" y="-1" width="2" height="3" rx="0.3" fill="#f5f0e8" opacity="0.85"/>
    <rect x="4" y="-1" width="2" height="3" rx="0.3" fill="#f5f0e8" opacity="0.85"/>
  </g>
</svg>
